<svg width="120" height="100" viewBox="0 0 120 100" fill="none" xmlns="http://www.w3.org/2000/svg">
<g id="Frame 1">
<rect width="120" height="100" fill="white"/>
<rect id="icon" x="21" y="11" width="79" height="79" rx="12" fill="#849FFF"/>
<rect id="Flits" x="36" y="30" width="16" height="4" rx="2" fill="#FFF500"/>
<path id="Camera" d="M38.9688 27C36.2256 27 34 29.2076 34 31.9286V68.0714C34 70.7924 36.2256 73 38.9688 73H82.0312C84.7744 73 87 70.7924 87 68.0714V31.9286C87 29.2076 84.7744 27 82.0312 27H38.9688ZM38.9688 30.2857H49.9414C50.283 30.2857 50.5625 30.5629 50.5625 30.9018V32.9554C50.5625 33.2942 50.283 33.5714 49.9414 33.5714H37.9336C37.592 33.5714 37.3125 33.2942 37.3125 32.9554V31.9286C37.3125 31.025 38.0578 30.2857 38.9688 30.2857ZM83.0664 40.1429H37.9336C37.592 40.1429 37.3125 39.8656 37.3125 39.5268V35.8304C37.3125 35.4915 37.592 35.2143 37.9336 35.2143H52.2188L55.3449 30.5629C55.4588 30.3884 55.6555 30.2857 55.8625 30.2857H82.0312C82.9422 30.2857 83.6875 31.025 83.6875 31.9286V39.5268C83.6875 39.8656 83.408 40.1429 83.0664 40.1429ZM60.5 67.25C53.6473 67.25 48.0781 61.7259 48.0781 54.9286C48.0781 48.1313 53.6473 42.6071 60.5 42.6071C67.3527 42.6071 72.9219 48.1313 72.9219 54.9286C72.9219 61.7259 67.3527 67.25 60.5 67.25ZM60.5 45.8929C55.4795 45.8929 51.3906 49.9487 51.3906 54.9286C51.3906 59.9085 55.4795 63.9643 60.5 63.9643C65.5205 63.9643 69.6094 59.9085 69.6094 54.9286C69.6094 49.9487 65.5205 45.8929 60.5 45.8929ZM55.5312 56.5714C54.6203 56.5714 53.875 55.8321 53.875 54.9286C53.875 51.304 56.8459 48.3571 60.5 48.3571C61.4109 48.3571 62.1562 49.0964 62.1562 50C62.1562 50.9036 61.4109 51.6429 60.5 51.6429C58.6781 51.6429 57.1875 53.1214 57.1875 54.9286C57.1875 55.8321 56.4422 56.5714 55.5312 56.5714Z" fill="white"/>
</g>
</svg>
