<svg width="120" height="100" viewBox="0 0 120 100" fill="none" xmlns="http://www.w3.org/2000/svg">
<g id="Frame 2">
<rect width="120" height="100" fill="white"/>
<rect id="icon" x="21" y="11" width="79" height="79" rx="12" fill="#FF9820"/>
<path id="Vector" d="M60.5 53.8125C68.7295 53.8125 75.4062 47.1357 75.4062 38.9062C75.4062 30.6768 68.7295 24 60.5 24C52.2705 24 45.5938 30.6768 45.5938 38.9062C45.5938 47.1357 52.2705 53.8125 60.5 53.8125ZM73.75 57.125H68.0463C65.7482 58.1809 63.1914 58.7812 60.5 58.7812C57.8086 58.7812 55.2621 58.1809 52.9537 57.125H47.25C39.9314 57.125 34 63.0564 34 70.375V72.0312C34 74.7744 36.2256 77 38.9688 77H82.0312C84.7744 77 87 74.7744 87 72.0312V70.375C87 63.0564 81.0686 57.125 73.75 57.125Z" fill="white"/>
</g>
</svg>
