<svg width="120" height="100" viewBox="0 0 120 100" fill="none" xmlns="http://www.w3.org/2000/svg">
<g id="Frame 4">
<rect width="120" height="100" fill="white"/>
<rect id="iconqrcode" x="21" y="11" width="79" height="79" rx="12" fill="#48FA96"/>
<path id="qrcode" d="M34 46.7143H56.7143V27H34V46.7143ZM41.5714 33.5714H49.1429V40.1429H41.5714V33.5714ZM64.2857 27V46.7143H87V27H64.2857ZM79.4286 40.1429H71.8571V33.5714H79.4286V40.1429ZM34 73H56.7143V53.2857H34V73ZM41.5714 59.8571H49.1429V66.4286H41.5714V59.8571ZM83.2143 53.2857H87V66.4286H75.6429V63.1429H71.8571V73H64.2857V53.2857H75.6429V56.5714H83.2143V53.2857ZM83.2143 69.7143H87V73H83.2143V69.7143ZM75.6429 69.7143H79.4286V73H75.6429V69.7143Z" fill="white"/>
</g>
</svg>
