<?xml version="1.0" standalone="no"?>
<!DOCTYPE svg PUBLIC "-//W3C//DTD SVG 20010904//EN"
 "http://www.w3.org/TR/2001/REC-SVG-20010904/DTD/svg10.dtd">
<svg version="1.0" xmlns="http://www.w3.org/2000/svg"
 width="2024.000000pt" height="2024.000000pt" viewBox="0 0 2024.000000 2024.000000"
 preserveAspectRatio="xMidYMid meet">
<metadata>
Created by potrace 1.14, written by Peter Selinger 2001-2017
</metadata>
<g transform="translate(0.000000,2024.000000) scale(0.100000,-0.100000)"
fill="#000000" stroke="none">
<path d="M120 17373 c0 -1536 3 -2793 8 -2794 23 -3 200 -4 212 -1 14 3 16
272 15 2660 0 1461 1 2662 2 2667 2 7 3259 10 9761 9 5366 -1 9759 -2 9762 -3
3 0 5 -1201 5 -2668 l0 -2668 117 0 118 0 0 2796 0 2795 -10000 0 -10000 0 0
-2793z"/>
<path d="M15678 14077 c-49 -17 -69 -70 -114 -295 -29 -147 -22 -152 241 -151
250 1 260 7 291 164 2 11 13 63 25 116 24 106 21 142 -14 161 -25 14 -391 19
-429 5z"/>
<path d="M1537 14024 c-1 -1 -38 -4 -82 -7 -159 -12 -281 -41 -431 -101 -341
-138 -613 -438 -715 -789 -24 -81 -66 -247 -74 -292 -3 -16 -15 -70 -26 -120
-11 -49 -22 -101 -25 -115 -4 -22 -12 -60 -20 -95 -36 -158 -45 -257 -41 -444
4 -194 7 -224 20 -237 4 -4 7 -14 7 -22 0 -23 61 -144 94 -187 55 -71 60 -76
119 -122 100 -77 243 -140 362 -159 17 -2 39 -7 51 -9 139 -30 407 -23 589 15
475 99 820 395 970 833 23 69 81 320 121 525 13 67 12 73 -10 99 l-23 26 -485
1 c-464 0 -485 -1 -511 -20 -34 -25 -43 -47 -72 -187 -26 -128 -23 -159 17
-173 13 -5 129 -9 258 -9 273 -1 247 18 206 -145 -50 -192 -132 -324 -258
-413 -134 -94 -253 -130 -433 -131 -151 -1 -183 5 -280 49 -172 79 -236 249
-195 521 28 190 154 749 184 819 7 16 22 50 32 75 80 191 262 328 489 369 73
14 237 10 308 -6 34 -8 90 -30 123 -48 97 -54 149 -125 179 -242 24 -94 22
-93 276 -93 231 0 256 4 284 47 18 27 21 132 6 210 -60 303 -360 527 -763 568
-60 6 -246 13 -251 9z"/>
<path d="M5664 14019 c-17 -3 -36 -9 -42 -13 -27 -16 -50 -86 -82 -246 -5 -25
-12 -56 -15 -70 -3 -14 -8 -36 -11 -50 -3 -14 -19 -86 -35 -160 -17 -74 -31
-143 -32 -152 -1 -21 3 -20 -172 -20 -210 1 -222 -8 -261 -183 -31 -142 -32
-172 -5 -198 18 -18 33 -20 185 -20 146 -1 166 -3 162 -16 -6 -20 -15 -58 -20
-91 -4 -21 -61 -283 -111 -510 -67 -301 -75 -350 -76 -465 -2 -275 117 -410
416 -470 60 -12 459 -13 495 -1 48 16 64 50 96 208 41 201 45 197 -213 197
-157 0 -189 4 -235 28 -55 27 -71 109 -48 234 6 30 13 68 16 84 3 17 9 46 14
65 7 28 38 175 64 305 3 11 14 65 26 120 12 55 24 111 27 125 6 38 23 111 33
151 l10 35 222 0 c123 -1 240 2 262 5 67 12 83 39 115 191 26 125 27 139 13
167 -8 17 -20 32 -26 33 -6 0 -120 2 -254 3 -133 1 -244 4 -247 7 -3 3 4 45
15 94 60 266 112 513 114 541 3 35 -23 72 -52 74 -66 5 -324 3 -348 -2z"/>
<path d="M7051 14009 c-14 -9 -32 -22 -38 -31 -11 -13 -55 -200 -99 -415 -3
-16 -12 -57 -20 -93 -8 -36 -17 -81 -20 -100 -3 -19 -8 -38 -10 -41 -2 -3 -6
-21 -9 -40 -3 -19 -40 -191 -81 -384 -88 -414 -82 -385 -88 -410 -2 -11 -21
-99 -40 -195 -20 -96 -41 -191 -46 -210 -5 -19 -11 -48 -14 -65 -2 -16 -19
-93 -36 -170 -16 -77 -33 -153 -36 -170 -3 -16 -16 -79 -30 -139 -29 -131 -29
-147 -5 -177 19 -24 22 -24 213 -25 216 -2 244 4 272 59 9 18 30 100 47 182
17 83 32 157 34 165 15 68 86 405 90 431 3 19 8 42 11 51 3 9 7 27 9 40 3 13
7 34 10 48 3 14 7 34 9 45 38 199 89 309 190 411 117 117 239 164 411 160 86
-2 108 -6 154 -29 68 -35 112 -87 128 -150 12 -52 14 -177 3 -232 -6 -33 -13
-71 -16 -85 -4 -20 -13 -64 -19 -90 -7 -29 -27 -123 -31 -146 -3 -16 -18 -90
-34 -165 -16 -74 -32 -151 -35 -170 -3 -19 -10 -47 -14 -64 -5 -16 -26 -112
-46 -213 -41 -198 -40 -223 7 -241 13 -4 109 -8 213 -7 164 1 195 3 218 18 42
28 37 10 136 473 28 133 34 159 47 223 3 15 14 65 24 112 10 47 21 96 24 110
2 14 16 78 30 144 34 154 40 203 40 306 0 110 -9 167 -39 246 -77 204 -238
325 -480 360 -80 12 -244 7 -325 -11 -126 -26 -283 -112 -390 -211 -19 -18
-36 -32 -37 -30 -4 3 23 134 82 401 24 110 46 214 49 230 3 17 15 71 26 120
25 116 25 147 -1 171 -18 17 -39 18 -216 19 -162 0 -200 -2 -222 -16z"/>
<path d="M13222 13975 c-17 -8 -37 -24 -45 -37 -12 -19 -41 -130 -61 -233 -2
-11 -16 -76 -31 -145 -15 -69 -29 -136 -31 -150 -3 -14 -26 -119 -51 -235 -25
-115 -47 -219 -49 -230 -2 -11 -18 -85 -35 -165 -17 -80 -39 -183 -49 -230
-10 -47 -25 -117 -33 -155 -9 -39 -18 -82 -21 -95 -2 -14 -12 -59 -21 -100 -9
-41 -19 -88 -21 -105 -3 -16 -10 -48 -16 -70 -5 -22 -12 -51 -15 -65 -2 -14
-29 -140 -59 -281 -30 -141 -54 -263 -54 -271 0 -9 9 -26 19 -39 19 -24 22
-24 223 -25 275 -2 282 2 313 151 9 44 18 87 20 95 2 8 22 101 44 205 22 105
54 253 71 330 17 77 33 152 36 166 l5 26 322 0 c177 0 367 3 422 7 550 40 883
338 979 876 12 66 14 228 3 270 -33 133 -75 210 -156 290 -79 78 -152 122
-263 161 -172 59 -209 62 -839 64 -454 2 -582 0 -607 -10z m1128 -423 c95 -26
167 -82 186 -144 17 -53 16 -167 0 -248 -49 -234 -212 -380 -466 -416 -36 -5
-517 -9 -606 -5 l-21 1 24 103 c12 56 25 113 27 127 2 14 18 90 36 170 17 80
33 154 36 165 16 79 25 123 29 143 3 12 7 32 10 45 2 12 7 34 10 48 l6 27 347
-3 c191 -2 363 -7 382 -13z"/>
<path d="M3522 13333 c-194 -32 -351 -113 -484 -249 -50 -51 -148 -176 -148
-188 0 -2 -16 -32 -34 -65 -66 -116 -143 -336 -170 -481 -2 -14 -11 -56 -19
-95 -68 -317 -13 -617 143 -774 79 -79 153 -121 274 -151 117 -29 273 -31 418
-5 101 17 237 94 352 196 38 34 56 46 53 33 -15 -49 -29 -121 -28 -144 0 -14
12 -34 25 -46 22 -20 34 -21 202 -20 241 1 232 -5 279 212 14 66 27 129 30
140 2 10 13 64 25 119 12 55 24 109 26 119 10 51 56 268 69 326 19 81 65 296
71 330 15 76 106 504 119 557 20 85 19 110 -8 137 -22 22 -29 23 -192 23 -190
0 -224 -7 -249 -56 -16 -31 -18 -36 -31 -109 l-8 -44 -56 59 c-106 112 -198
159 -351 179 -82 11 -230 10 -308 -3z m398 -421 c60 -26 107 -75 139 -142 23
-49 26 -67 25 -165 0 -100 -6 -143 -50 -351 -51 -247 -205 -450 -389 -514 -85
-30 -223 -37 -297 -15 -75 22 -139 81 -162 153 -50 150 -4 500 93 707 91 194
219 317 354 341 17 3 34 8 37 11 13 13 206 -6 250 -25z"/>
<path d="M10037 13343 c-2 -1 -25 -5 -53 -8 -313 -36 -598 -211 -779 -481
-153 -227 -249 -551 -249 -844 0 -159 19 -252 76 -364 49 -98 135 -186 237
-244 65 -37 181 -72 293 -88 84 -12 333 -5 380 11 7 2 27 6 43 8 76 11 281 90
387 150 154 86 336 289 323 359 -10 50 -22 52 -227 52 -106 0 -205 -3 -220 -7
-15 -4 -51 -30 -80 -58 -127 -122 -238 -170 -390 -170 -161 -1 -268 84 -304
240 -14 57 -14 247 -1 267 5 9 179 12 642 12 455 0 644 3 663 11 41 17 61 58
86 184 30 144 31 372 2 482 -61 235 -228 402 -456 458 -36 9 -87 19 -114 23
-48 6 -255 12 -259 7z m183 -371 c122 -55 181 -170 175 -338 -4 -98 -7 -120
-19 -131 -4 -4 -193 -8 -420 -8 l-413 0 15 55 c58 225 198 383 383 435 75 21
219 14 279 -13z"/>
<path d="M17228 13345 c-2 -2 -32 -5 -68 -8 -92 -8 -122 -14 -207 -37 -362
-99 -625 -393 -732 -817 -20 -79 -51 -222 -56 -258 -2 -11 -8 -48 -14 -81 -13
-68 -16 -223 -6 -270 16 -74 29 -120 36 -128 5 -6 9 -16 9 -22 0 -7 17 -41 37
-76 145 -247 437 -368 814 -337 130 11 177 19 264 46 171 53 313 141 430 264
111 117 199 265 211 353 10 72 -2 76 -242 76 -232 0 -229 1 -284 -95 -46 -81
-121 -157 -188 -193 -147 -78 -354 -83 -463 -9 -36 24 -87 90 -93 122 -3 11
-9 38 -14 61 -19 84 -5 214 48 449 11 50 23 100 25 113 10 41 46 126 82 190
68 124 204 224 340 253 79 16 217 7 274 -18 102 -45 140 -114 148 -271 1 -7
12 -24 26 -37 24 -25 25 -25 229 -25 198 0 206 1 231 23 39 34 50 102 31 201
-25 135 -110 272 -222 360 -89 70 -235 134 -339 150 -16 2 -49 7 -72 11 -42 7
-230 14 -235 10z"/>
<path d="M19347 13344 c-1 -1 -35 -5 -75 -8 -163 -15 -359 -86 -484 -176 -196
-141 -307 -348 -296 -555 6 -103 40 -177 117 -246 93 -86 198 -130 466 -197
240 -60 325 -94 375 -146 36 -40 40 -135 7 -196 -55 -102 -177 -160 -348 -166
-170 -6 -231 18 -361 144 l-77 74 -171 -1 c-185 -2 -214 -8 -239 -53 -29 -55
-11 -146 45 -230 157 -234 490 -325 964 -263 30 4 58 9 61 11 3 2 20 6 39 9
85 15 237 79 331 140 188 121 303 309 313 509 8 154 -58 277 -197 369 -78 52
-215 104 -327 123 -84 15 -280 69 -340 93 -96 39 -135 71 -147 119 -21 81 11
161 91 226 68 57 136 75 264 72 96 -2 114 -5 164 -30 32 -16 86 -59 129 -102
l73 -74 171 0 c168 0 170 0 198 25 25 24 27 32 27 103 0 67 -4 84 -29 127 -89
151 -291 265 -516 291 -56 6 -223 12 -228 8z"/>
<path d="M11441 13289 c-26 -16 -63 -68 -61 -84 1 -3 -4 -29 -9 -58 -6 -28
-13 -61 -15 -72 -6 -31 -105 -497 -111 -520 -8 -32 -127 -598 -131 -625 -3
-14 -7 -33 -10 -42 -3 -10 -7 -30 -10 -45 -3 -16 -11 -56 -19 -91 -8 -34 -17
-77 -20 -95 -4 -17 -16 -79 -28 -137 -12 -58 -21 -115 -19 -127 6 -42 51 -51
252 -49 202 2 217 5 244 61 9 16 45 170 81 340 36 171 70 326 75 345 5 19 11
51 14 70 17 112 88 394 112 445 52 112 163 200 293 235 24 6 133 12 250 14
187 2 210 4 233 22 30 21 46 51 54 97 2 18 15 78 28 134 26 114 26 157 2 182
-27 26 -314 24 -451 -4 -98 -20 -202 -75 -286 -153 -43 -39 -69 -58 -66 -47
21 66 33 153 25 177 -13 39 -50 46 -235 46 -139 -1 -167 -3 -192 -19z"/>
<path d="M15520 13292 c-51 -25 -50 -22 -135 -428 -26 -120 -49 -230 -51 -244
-3 -14 -14 -63 -24 -110 -10 -47 -26 -121 -36 -165 -9 -44 -17 -84 -18 -90 -2
-5 -6 -28 -11 -50 -4 -22 -9 -47 -11 -55 -1 -8 -12 -58 -23 -110 -46 -211 -73
-336 -76 -355 -3 -11 -7 -31 -10 -45 -3 -14 -7 -34 -9 -45 -3 -11 -12 -57 -22
-103 -19 -93 -12 -126 28 -141 13 -5 104 -8 203 -7 246 2 231 -12 289 261 14
66 84 399 156 740 72 341 133 627 135 635 1 8 13 62 26 120 45 207 47 205
-195 206 -147 1 -190 -2 -216 -14z"/>
<path d="M8379 10568 c-40 -46 -80 -90 -89 -99 -8 -8 -43 -47 -78 -86 l-62
-71 -178 -1 c-97 -1 -193 -4 -212 -7 -128 -21 -250 -90 -353 -199 -49 -52
-123 -203 -136 -280 -8 -40 -11 -550 -11 -1601 0 -1663 -2 -1582 52 -1709 36
-88 113 -182 199 -248 46 -35 165 -85 234 -99 103 -20 4682 -19 4765 1 205 50
366 194 438 392 l27 74 3 1575 c2 1512 1 1578 -17 1640 -64 224 -219 382 -434
440 -79 22 -83 22 -1308 22 l-1229 0 -152 169 -152 169 -617 0 -616 0 -74 -82z
m1263 -266 c67 -77 85 -97 181 -202 l51 -55 1265 -1 c696 0 1284 -4 1305 -8
97 -18 190 -92 235 -186 l26 -55 0 -1550 0 -1550 -23 -56 c-32 -80 -90 -142
-170 -181 l-66 -33 -2310 0 c-1852 0 -2320 2 -2360 13 -111 28 -213 132 -236
239 -7 32 -10 557 -8 1583 l3 1535 26 55 c46 95 137 167 235 186 21 4 136 7
254 7 l214 -1 41 42 c35 35 87 93 239 264 l29 32 501 0 501 -1 67 -77z"/>
<path d="M8376 9434 c-57 -21 -102 -58 -133 -112 -24 -40 -28 -58 -28 -122 0
-86 15 -120 74 -178 96 -93 250 -91 345 4 51 51 70 99 70 174 0 75 -20 125
-72 177 -65 65 -172 89 -256 57z"/>
<path d="M10018 9265 c-1 -1 -28 -6 -58 -9 -316 -38 -634 -260 -792 -556 -288
-536 -77 -1200 469 -1474 308 -155 691 -148 993 17 480 262 688 838 487 1347
-135 343 -464 607 -827 665 -47 7 -266 16 -272 10z"/>
<path d="M120 2869 l0 -2795 10000 0 10000 0 0 2793 c0 2653 -1 2793 -17 2794
-49 3 -190 4 -203 1 -14 -3 -15 -286 -15 -2660 1 -1461 -1 -2662 -2 -2667 -2
-7 -3259 -10 -9761 -9 -5366 1 -9759 2 -9762 3 -3 0 -5 1200 -5 2666 1 2396
-1 2665 -15 2666 -8 1 -61 2 -117 3 l-103 1 0 -2796z"/>
</g>
</svg>
